<?xml version="1.0" encoding="UTF-8" standalone="no"?>
<svg
   xmlns:dc="http://purl.org/dc/elements/1.1/"
   xmlns:cc="http://creativecommons.org/ns#"
   xmlns:rdf="http://www.w3.org/1999/02/22-rdf-syntax-ns#"
   xmlns:svg="http://www.w3.org/2000/svg"
   xmlns="http://www.w3.org/2000/svg"
   viewBox="0 0 1081.9333 638.77332"
   height="638.77332"
   width="1081.9333"
   xml:space="preserve"
   id="svg2"
   version="1.1"><metadata
     id="metadata8"><rdf:RDF><cc:Work
         rdf:about=""><dc:format>image/svg+xml</dc:format><dc:type
           rdf:resource="http://purl.org/dc/dcmitype/StillImage" /></cc:Work></rdf:RDF></metadata><defs
     id="defs6" /><g
     transform="matrix(1.3333333,0,0,-1.3333333,0,638.77333)"
     id="g10"><g
       transform="scale(0.1)"
       id="g12"><path
         id="path14"
         style="fill:#ffffff;fill-opacity:1;fill-rule:nonzero;stroke:none"
         d="M 8114.47,2395.38 C 8114.47,1072.46 7042.01,0 5719.07,0 4396.12,0 3323.67,1072.46 3323.67,2395.38 c 0,1322.96 1072.45,2395.41 2395.4,2395.41 1322.94,0 2395.4,-1072.45 2395.4,-2395.41" /><path
         id="path16"
         style="fill:#100f0d;fill-opacity:1;fill-rule:nonzero;stroke:none"
         d="M 7965.6,2159.54 C 7965.6,985.012 7013.45,32.8594 5838.92,32.8594 c -1174.53,0 -2126.67,952.1526 -2126.67,2126.6806 0,1174.53 952.14,2126.67 2126.67,2126.67 1174.53,0 2126.68,-952.14 2126.68,-2126.67" /><path
         id="path18"
         style="fill:#ffffff;fill-opacity:1;fill-rule:nonzero;stroke:none"
         d="M 5247.77,4072.76 V 592.75 c 0,0 79.88,-86.441 141.45,74.219 116.49,303.961 170.54,549.691 123.29,911.991 -61.95,475.04 75.55,475.04 281.81,229.49 158.85,-189.12 301.91,-395.98 678.29,-468.56 340.5,-65.65 525.68,65.76 547.06,392.95 18.4,281.51 -281.34,507.53 -48.97,941.91 260.55,487.07 -44.09,737.95 -298.42,699.66 -303.1,-45.64 -616.65,-352.61 -884.42,-638 -117.19,-124.9 -158.37,6.34 86.88,212.76 357.09,300.55 483.47,412.16 533.06,628.59 64.83,282.94 3.05,569.44 -349.86,569.97 -278.22,0.42 -338.88,-248.45 -810.17,-74.97" /><path
         id="path20"
         style="fill:none;stroke:#ffffff;stroke-width:10;stroke-linecap:butt;stroke-linejoin:miter;stroke-miterlimit:10;stroke-dasharray:none;stroke-opacity:1"
         d="M 5247.77,4072.76 V 592.75 c 0,0 79.88,-86.441 141.45,74.219 116.49,303.961 170.54,549.691 123.29,911.991 -61.95,475.04 75.55,475.04 281.81,229.49 158.85,-189.12 301.91,-395.98 678.29,-468.56 340.5,-65.65 525.68,65.76 547.06,392.95 18.4,281.51 -281.34,507.53 -48.97,941.91 260.55,487.07 -44.09,737.95 -298.42,699.66 -303.1,-45.64 -616.65,-352.61 -884.42,-638 -117.19,-124.9 -158.37,6.34 86.88,212.76 357.09,300.55 483.47,412.16 533.06,628.59 64.83,282.94 3.05,569.44 -349.86,569.97 -278.22,0.42 -338.88,-248.45 -810.17,-74.97 z" /><path
         id="path22"
         style="fill:#100f0d;fill-opacity:1;fill-rule:nonzero;stroke:none"
         d="m 6723.76,2520.71 c 0,0 -69.01,-141.66 0,-250.63 0,0 -629.65,88.55 -973.06,34.15 0,0 221.79,91.16 973.06,216.48" /><path
         id="path24"
         style="fill:none;stroke:#100f0d;stroke-width:10;stroke-linecap:butt;stroke-linejoin:miter;stroke-miterlimit:10;stroke-dasharray:none;stroke-opacity:1"
         d="m 6723.76,2520.71 c 0,0 -69.01,-141.66 0,-250.63 0,0 -629.65,88.55 -973.06,34.15 0,0 221.79,91.16 973.06,216.48 z" /><path
         id="path26"
         style="fill:#100f0d;fill-opacity:1;fill-rule:nonzero;stroke:none"
         d="m 5425.37,3926.39 c 0,0 103.92,-58.75 293.7,0 0,0 -94.9,-614.53 -293.7,-998.6 0,0 58.74,497.03 0,998.6" /><path
         id="path28"
         style="fill:none;stroke:#100f0d;stroke-width:10;stroke-linecap:butt;stroke-linejoin:miter;stroke-miterlimit:10;stroke-dasharray:none;stroke-opacity:1"
         d="m 5425.37,3926.39 c 0,0 103.92,-58.75 293.7,0 0,0 -94.9,-614.53 -293.7,-998.6 0,0 58.74,497.03 0,998.6 z" /><path
         id="path30"
         style="fill:#ffffff;fill-opacity:1;fill-rule:nonzero;stroke:none"
         d="m 5244.61,1911.14 c 0,0 66.34,100.12 97.67,40.98 29.02,-54.79 -10.44,-120.07 7.05,-304.92 28.52,-301.35 71.26,-540.75 -101.56,-829.54" /><path
         id="path32"
         style="fill:none;stroke:#231f20;stroke-width:10;stroke-linecap:butt;stroke-linejoin:miter;stroke-miterlimit:10;stroke-dasharray:none;stroke-opacity:1"
         d="m 5244.61,1911.14 c 0,0 66.34,100.12 97.67,40.98 29.02,-54.79 -10.44,-120.07 7.05,-304.92 28.52,-301.35 71.26,-540.75 -101.56,-829.54" /><path
         id="path34"
         style="fill:#100f0d;fill-opacity:1;fill-rule:nonzero;stroke:none"
         d="m 5247.77,592.75 c 0,0 4.6,4028.31 -5.68,4069.13 0,0 544,-1122.69 536.95,-1405.82 -7.63,-306.44 -292.4,-435.75 -318.66,-726.66 -17.03,-188.61 37.89,55.97 92.64,152.21 114.39,201.05 186.58,310.43 368.42,432.59 323.15,217.11 585.06,91.48 703.72,-80.42 123.57,-179.02 76.1,-346.3 19.41,-526.5 -22.3,-70.86 -46.03,-143.71 -61.34,-220.06 -15.47,-77.13 -22.37,-157.82 -10.54,-243.61 9.38,-68.01 51.79,-78.51 44.98,-101.05 -9.64,-31.92 -84.01,6.34 -113.42,32.94 -147.18,133.13 -132.15,231.82 -149.34,332.89 -7.41,43.49 -20.77,87.43 -55.62,134.74 -21.65,29.38 -51.58,60.07 -93.51,92.77 -117.25,91.41 -308.31,76.74 -395.75,0.96 -95.02,-82.34 -107.39,-100.44 -164.23,-298.81 -20.31,-70.86 -152.8,-76.38 -168.08,-125.38 -14.85,-47.63 -20.14,-60.68 -17.22,-121.95 2.87,-60.26 86.52,-82.47 186.52,-73.17 159.61,14.83 329.55,-25.78 417.49,-176.49 80.37,-137.74 -10.43,-209.71 38.1,-313.49 4.32,-9.23 9.3,-17.56 7.8,-26.54 -1.12,-6.64 -12.43,-14.98 -25.07,-4.03 -135.62,117.37 -292.01,105.9 -449.83,95.85 -87.76,-5.59 -193.97,24.86 -254.62,129.64 -40.07,69.25 -39.5,37.42 -20.84,-17.26 16.37,-47.96 61.25,-75.59 230.82,-188.56 218.71,-145.7 -110.18,-557.182 -343.1,-823.92" /><path
         id="path36"
         style="fill:none;stroke:#ffffff;stroke-width:10;stroke-linecap:butt;stroke-linejoin:miter;stroke-miterlimit:10;stroke-dasharray:none;stroke-opacity:1"
         d="m 5247.77,592.75 c 0,0 4.6,4028.31 -5.68,4069.13 0,0 544,-1122.69 536.95,-1405.82 -7.63,-306.44 -292.4,-435.75 -318.66,-726.66 -17.03,-188.61 37.89,55.97 92.64,152.21 114.39,201.05 186.58,310.43 368.42,432.59 323.15,217.11 585.06,91.48 703.72,-80.42 123.57,-179.02 76.1,-346.3 19.41,-526.5 -22.3,-70.86 -46.03,-143.71 -61.34,-220.06 -15.47,-77.13 -22.37,-157.82 -10.54,-243.61 9.38,-68.01 51.79,-78.51 44.98,-101.05 -9.64,-31.92 -84.01,6.34 -113.42,32.94 -147.18,133.13 -132.15,231.82 -149.34,332.89 -7.41,43.49 -20.77,87.43 -55.62,134.74 -21.65,29.38 -51.58,60.07 -93.51,92.77 -117.25,91.41 -308.31,76.74 -395.75,0.96 -95.02,-82.34 -107.39,-100.44 -164.23,-298.81 -20.31,-70.86 -152.8,-76.38 -168.08,-125.38 -14.85,-47.63 -20.14,-60.68 -17.22,-121.95 2.87,-60.26 86.52,-82.47 186.52,-73.17 159.61,14.83 329.55,-25.78 417.49,-176.49 80.37,-137.74 -10.43,-209.71 38.1,-313.49 4.32,-9.23 9.3,-17.56 7.8,-26.54 -1.12,-6.64 -12.43,-14.98 -25.07,-4.03 -135.62,117.37 -292.01,105.9 -449.83,95.85 -87.76,-5.59 -193.97,24.86 -254.62,129.64 -40.07,69.25 -39.5,37.42 -20.84,-17.26 16.37,-47.96 61.25,-75.59 230.82,-188.56 218.71,-145.7 -110.18,-557.182 -343.1,-823.92 z" /><path
         id="path38"
         style="fill:#137f32;fill-opacity:1;fill-rule:nonzero;stroke:none"
         d="M 5206.04,4661.88 V 1543.77 h -383.47 v 170.08 c -359.55,5.55 -422.75,358.87 -321.06,685.47 704.53,2262.56 704.53,2262.56 704.53,2262.56" /><path
         id="path40"
         style="fill:none;stroke:#ffffff;stroke-width:10;stroke-linecap:butt;stroke-linejoin:miter;stroke-miterlimit:10;stroke-dasharray:none;stroke-opacity:1"
         d="M 5206.04,4661.88 V 1543.77 h -383.47 v 170.08 c -359.55,5.55 -422.75,358.87 -321.06,685.47 704.53,2262.56 704.53,2262.56 704.53,2262.56 z" /><path
         id="path42"
         style="fill:#42a430;fill-opacity:1;fill-rule:nonzero;stroke:none"
         d="M 5206.04,4094.95 V 1543.77 H 4964.3 v 311.81 c -323.3,0.24 -342.11,255.81 -243.06,592.29 521.73,1772.59 484.8,1647.08 484.8,1647.08" /><path
         id="path44"
         style="fill:none;stroke:#ffffff;stroke-width:10;stroke-linecap:butt;stroke-linejoin:miter;stroke-miterlimit:10;stroke-dasharray:none;stroke-opacity:1"
         d="M 5206.04,4094.95 V 1543.77 H 4964.3 v 311.81 c -323.3,0.24 -342.11,255.81 -243.06,592.29 521.73,1772.59 484.8,1647.08 484.8,1647.08 z" /><path
         id="path46"
         style="fill:#80cc28;fill-opacity:1;fill-rule:nonzero;stroke:none"
         d="M 5206.04,3528.02 V 1543.77 h -100 v 453.54 c -214.52,2.8 -250.7,158.3 -190.88,392.39 290.88,1138.32 290.88,1138.32 290.88,1138.32" /><path
         id="path48"
         style="fill:none;stroke:#ffffff;stroke-width:10;stroke-linecap:butt;stroke-linejoin:miter;stroke-miterlimit:10;stroke-dasharray:none;stroke-opacity:1"
         d="M 5206.04,3528.02 V 1543.77 h -100 v 453.54 c -214.52,2.8 -250.7,158.3 -190.88,392.39 290.88,1138.32 290.88,1138.32 290.88,1138.32 z" /><path
         id="path50"
         style="fill:#ffffff;fill-opacity:1;fill-rule:nonzero;stroke:none"
         d="M 5206.04,1554.6 H 4156.28 v -30.66 h 1049.76 v 30.66" /><path
         id="path52"
         style="fill:none;stroke:#ffffff;stroke-width:10;stroke-linecap:butt;stroke-linejoin:miter;stroke-miterlimit:10;stroke-dasharray:none;stroke-opacity:1"
         d="M 5206.04,1554.6 H 4156.28 v -30.66 h 1049.76 z" /><path
         id="path54"
         style="fill:#231f20;fill-opacity:1;fill-rule:nonzero;stroke:none"
         d="m 175.195,1423.47 v -203.91 h 81.739 c 40.429,0 70.312,8.35 89.648,25.05 19.336,16.7 29.004,42.53 29.004,77.49 0,40.82 -13.379,69.24 -40.137,85.25 -9.57,5.67 -20.801,9.77 -33.691,12.31 -12.891,2.54 -28.906,3.81 -48.047,3.81 z M 0.585938,1434.31 H 244.922 c 14.453,0 30.273,-0.49 47.461,-1.47 17.183,-0.98 32.617,-2.2 46.289,-3.66 13.668,-1.47 25,-3.18 33.984,-5.13 32.227,-6.83 56.879,-19.09 73.977,-36.77 17.09,-17.67 25.633,-39.6 25.633,-65.77 0,-17.97 -4.102,-33.98 -12.305,-48.04 -8.203,-14.07 -20.266,-25.93 -36.184,-35.6 -15.922,-9.67 -35.402,-17.04 -58.445,-22.12 -23.047,-5.08 -49.027,-7.62 -77.93,-7.62 H 175.195 v -97.26 c 0,-50 24.801,-75 74.414,-75 h 20.508 v -10.84 H 0 v 10.84 h 14.3555 c 49.6093,0 74.414,25 74.414,75 v 238.18 c 0,49.61 -24.8047,74.42 -74.414,74.42 H 0.585938 v 10.84" /><path
         id="path56"
         style="fill:#231f20;fill-opacity:1;fill-rule:nonzero;stroke:none"
         d="M 686.719,1423.47 V 1245.93 H 712.5 c 27.145,0 48.34,8.88 63.574,26.66 15.235,17.77 26.172,46.48 32.813,86.13 h 10.254 v -234.67 h -10.84 c -3.125,20.31 -6.934,36.43 -11.426,48.34 -4.496,11.92 -10.648,22.56 -18.457,31.94 -16.602,20.5 -40.43,30.76 -71.484,30.76 h -20.215 v -124.22 c 0,-25.2 6.101,-43.9 18.308,-56.11 12.203,-12.2 30.809,-18.31 55.813,-18.31 h 26.074 v -11.42 H 515.625 v 11.42 h 10.254 c 25.195,0 43.894,6.11 56.101,18.31 12.204,12.21 18.313,30.91 18.313,56.11 v 238.18 c 0,25.39 -6.055,44.14 -18.164,56.25 -12.113,12.11 -30.863,18.17 -56.25,18.17 h -10.254 v 10.84 h 447.656 v -176.96 h -9.668 c -2.929,15.24 -6.152,29.2 -9.668,41.9 -3.515,12.69 -6.933,22.46 -10.254,29.29 -9.769,21.68 -21.636,39.51 -35.593,53.47 -13.965,13.97 -30.469,24.37 -49.512,31.2 -19.043,6.84 -40.68,10.26 -64.895,10.26 h -96.972" /><path
         id="path58"
         style="fill:#231f20;fill-opacity:1;fill-rule:nonzero;stroke:none"
         d="m 1137.89,1346.71 -80.27,-182.52 h 162.59 z m 31.06,95.8 h 10.84 l 164.64,-358.01 c 5.28,-11.13 11.18,-20.31 17.73,-27.54 6.54,-7.22 13.91,-12.45 22.12,-15.67 8.2,-3.22 17.87,-4.84 29,-4.84 h 10.84 v -11.42 h -237.6 v 11.42 h 31.06 c 15.42,0 26.7,2.1 33.84,6.3 7.12,4.2 10.69,10.7 10.69,19.49 0,5.46 -1.42,12.1 -4.25,19.92 -2.83,7.81 -9.04,21.97 -18.6,42.48 -0.59,1.17 -1.47,3.12 -2.64,5.86 -1.17,2.73 -2.45,5.37 -3.81,7.91 l -6.74,14.94 h -173.43 l -13.19,-30.47 c -4.29,-10.35 -6.44,-20.8 -6.44,-31.35 0,-8.98 2.49,-17.87 7.47,-26.66 4.98,-8.79 11.47,-15.43 19.48,-19.92 5.27,-3.12 10.01,-5.22 14.21,-6.3 4.2,-1.07 10.21,-1.81 18.02,-2.2 v -11.42 H 925.488 v 11.42 c 12.11,1.37 21.723,3.52 28.86,6.45 7.129,2.93 15.086,7.81 23.875,14.65 20.699,16.01 40.917,46.19 60.647,90.53 l 130.08,294.43" /><path
         id="path60"
         style="fill:#231f20;fill-opacity:1;fill-rule:nonzero;stroke:none"
         d="m 1633.59,1423.47 v -387.02 h 79.1 c 22.46,0 41.5,1.27 57.13,3.81 15.62,2.54 29.3,6.69 41.01,12.45 11.72,5.77 21.98,13.33 30.77,22.71 32.42,33.01 48.63,83.79 48.63,152.34 0,22.46 -1.99,43.7 -6,63.72 -4,20.02 -9.82,37.65 -17.44,52.88 -7.62,15.24 -17.19,28.62 -28.71,40.14 -9.57,9.38 -20.35,16.94 -32.36,22.71 -12.01,5.76 -25.88,9.91 -41.6,12.45 -15.73,2.54 -34.63,3.81 -56.7,3.81 z m -175.78,10.84 h 271.58 c 44.14,0 82.68,-5.52 115.59,-16.56 32.91,-11.03 60.58,-27.98 83.04,-50.83 20.31,-19.72 36,-41.99 47.03,-66.79 11.04,-24.81 16.55,-50.3 16.55,-76.47 0,-28.71 -5.96,-55.27 -17.87,-79.69 -11.92,-24.41 -28.75,-45.5 -50.53,-63.28 -21.78,-17.77 -47.62,-31.49 -77.5,-41.16 -29.88,-9.67 -62.21,-14.5 -96.97,-14.5 h -290.92 v 11.42 h 14.94 c 25.2,0 43.9,6.11 56.11,18.31 12.2,12.21 18.31,30.91 18.31,56.11 v 238.18 c 0,25.39 -6.06,44.14 -18.17,56.25 -12.11,12.11 -30.86,18.17 -56.25,18.17 h -14.94 v 10.84" /><path
         id="path62"
         style="fill:#231f20;fill-opacity:1;fill-rule:nonzero;stroke:none"
         d="m 2066.3,1036.45 h 11.43 c 25.19,0 43.9,6.11 56.1,18.31 12.21,12.21 18.31,30.91 18.31,56.11 1.57,10.54 2.79,19.87 3.67,27.98 0.87,8.1 1.41,17.38 1.61,27.83 0.19,10.45 0.19,23.58 0,39.4 -0.78,66.8 -2.74,117.09 -5.86,150.88 -1.17,13.67 -3.37,24.32 -6.59,31.94 -3.23,7.61 -8.06,13.96 -14.51,19.04 -11.71,10.35 -29.29,15.53 -52.73,15.53 h -11.43 v 10.84 h 257.82 v -10.84 h -11.43 c -25.19,0 -43.85,-6.06 -55.96,-18.17 -12.11,-12.11 -18.16,-30.86 -18.16,-56.25 v -238.18 c 0,-25.2 6.1,-43.9 18.31,-56.11 12.21,-12.2 30.81,-18.31 55.81,-18.31 h 11.43 v -11.42 H 2066.3 v 11.42" /><path
         id="path64"
         style="fill:#231f20;fill-opacity:1;fill-rule:nonzero;stroke:none"
         d="m 2837.69,1431.96 c -17.77,0 -34.52,-3.07 -50.24,-9.23 -15.73,-6.15 -28.96,-14.89 -39.7,-26.22 -11.72,-12.3 -21.73,-26.9 -30.03,-43.8 -8.3,-16.89 -14.55,-35.74 -18.75,-56.54 -4.2,-20.8 -6.3,-43.21 -6.3,-67.24 0,-30.07 3.32,-57.47 9.96,-82.17 6.64,-24.71 16.21,-46 28.71,-63.87 12.5,-17.87 27.44,-31.49 44.83,-40.87 17.38,-9.37 36.72,-14.06 58,-14.06 28.91,0 54.06,8.25 75.44,24.75 21.39,16.51 37.8,40.09 49.22,70.76 11.43,30.66 17.14,67.09 17.14,109.27 0,27.35 -3.12,52.93 -9.37,76.76 -6.25,23.83 -15.24,44.58 -26.96,62.26 -11.72,17.67 -25.88,31.69 -42.48,42.04 -8.2,5.47 -17.67,9.86 -28.41,13.18 -10.75,3.32 -21.1,4.98 -31.06,4.98 z m -7.62,10.55 c 38.28,0 73.29,-6.1 105.03,-18.31 31.74,-12.21 59.33,-30.03 82.77,-53.47 19.72,-19.92 34.96,-42.14 45.7,-66.65 10.74,-24.51 16.11,-49.56 16.11,-75.15 0,-38.47 -10.89,-73.92 -32.66,-106.34 -21.78,-32.43 -51.37,-58.11 -88.77,-77.05 -37.41,-18.95 -78.37,-28.42 -122.9,-28.42 -33.99,0 -65.97,5.37 -95.95,16.11 -29.98,10.74 -56.4,25.93 -79.25,45.56 -22.85,19.63 -40.67,42.53 -53.47,68.7 -12.79,26.17 -19.18,53.51 -19.18,82.03 0,37.89 11.03,73.24 33.1,106.06 22.07,32.81 51.66,58.83 88.77,78.07 37.11,19.24 77.34,28.86 120.7,28.86" /><path
         id="path66"
         style="fill:#231f20;fill-opacity:1;fill-rule:nonzero;stroke:none"
         d="m 3137.69,1434.31 h 279.2 v -10.84 h -29.59 c -25.2,0 -43.85,-6.06 -55.96,-18.17 -12.11,-12.11 -18.16,-30.86 -18.16,-56.25 v -313.18 h 106.05 c 20.9,0 40.63,4.64 59.18,13.91 18.56,9.28 34.67,22.22 48.34,38.82 8.21,10.35 15.43,20.61 21.68,30.76 6.25,10.16 12.21,22.47 17.87,36.92 5.67,14.45 11.23,31.05 16.7,49.8 h 10.84 v -181.05 h -456.15 l -0.59,10.84 h 15.24 c 49.61,0 74.41,25 74.41,75 v 238.18 c 0,49.61 -24.8,74.42 -74.41,74.42 h -14.65 v 10.84" /><path
         id="path68"
         style="fill:#100f0d;fill-opacity:1;fill-rule:nonzero;stroke:none"
         d="m 3636.62,1434.31 h 479.88 v -207.72 l -9.38,-0.59 c -4.88,51.96 -20.5,96.59 -46.87,133.89 -31.25,42.38 -70.9,63.58 -118.95,63.58 h -21.38 v -312.6 c 0,-49.61 24.7,-74.42 74.12,-74.42 h 61.81 v -11.42 h -357.42 v 11.42 h 61.23 c 49.61,0 74.42,24.81 74.42,74.42 v 312.6 h -26.37 c -48.83,0 -88.48,-22.86 -118.95,-68.56 -15.03,-22.46 -26.46,-49.22 -34.27,-80.27 -2.54,-10.55 -5.08,-26.56 -7.62,-48.05 h -10.25 v 207.72" /><path
         id="path70"
         style="fill:#ffffff;fill-opacity:1;fill-rule:nonzero;stroke:none"
         d="m 4158.1,1434.31 h 435.35 v -158.5 h -8.79 c -8,27.73 -15.18,48.49 -21.53,62.26 -6.35,13.76 -14.6,26.8 -24.76,39.11 -12.3,14.65 -25.68,25.09 -40.13,31.34 -24.03,9.97 -53.23,14.95 -87.6,14.95 h -80.57 v -194.54 h 21.68 c 32.23,0 57.82,13.87 76.76,41.61 9.77,14.25 16.99,31.25 21.68,50.97 2.34,8.4 4.49,20.8 6.45,37.21 h 10.25 v -268.36 h -10.25 c -2.35,14.45 -5.13,28.08 -8.35,40.87 -3.23,12.79 -6.84,23.19 -10.84,31.2 -4.01,8.01 -9.13,16.02 -15.38,24.02 -17.58,21.68 -42.58,32.52 -75,32.52 h -17 v -183.1 h 67.39 c 19.92,0 37.84,1.41 53.76,4.25 15.91,2.83 30.22,7.22 42.92,13.18 12.69,5.96 24.61,13.72 35.74,23.29 19.14,16.21 33.98,36.43 44.53,60.65 6.05,13.86 12.4,32.61 19.04,56.25 h 10.84 v -168.46 h -445.6 l -0.59,10.84 h 11.13 c 49.61,0 74.42,25 74.42,75 v 238.18 c 0,25.39 -6.06,44.14 -18.17,56.25 -12.11,12.11 -30.86,18.17 -56.25,18.17 h -11.13 v 10.84" /><path
         id="path72"
         style="fill:#ffffff;fill-opacity:1;fill-rule:nonzero;stroke:none"
         d="m 4656.73,1434.31 h 164.36 l 284.47,-294.73 v 176.37 c 0,21.48 -3.66,40.28 -10.98,56.39 -7.33,16.12 -17.92,28.37 -31.79,36.77 -7.42,4.69 -14.89,8.01 -22.41,9.96 -7.52,1.95 -18.02,3.42 -31.5,4.4 v 10.84 h 202.74 v -10.84 h -4.11 c -29.49,0 -51.95,-9.38 -67.38,-28.13 -15.43,-18.75 -23.14,-46 -23.14,-81.74 v -292.67 h -9.67 L 4754,1383.91 v -243.16 c 0,-23.63 2.83,-42.53 8.5,-56.69 5.66,-14.16 14.84,-25.24 27.53,-33.25 10.36,-6.25 22.95,-10.25 37.8,-12.01 8.2,-1.37 19.92,-2.35 35.15,-2.93 v -10.84 h -213.57 v 10.84 c 21.87,1.17 39.7,5.03 53.47,11.57 13.77,6.54 23.92,16.26 30.46,29.15 6.55,12.89 9.82,28.91 9.82,48.05 v 231.44 c 0,14.26 -3.17,26.37 -9.52,36.33 -6.35,9.96 -15.58,17.63 -27.69,23 -12.11,5.37 -26.76,8.06 -43.94,8.06 h -5.28 v 10.84" /><path
         id="path74"
         style="fill:#ffffff;fill-opacity:1;fill-rule:nonzero;stroke:none"
         d="m 3839.11,1434.31 c 17.75,-47.94 36.93,-106.07 80.81,-192.51 v 181.67 c 0,0 97.2,4.62 140.33,-63.58 47.55,-75.2 46.87,-133.89 46.87,-133.89 l 9.38,0.59 v 207.72 h -277.39" /><path
         id="path76"
         style="fill:#ffffff;fill-opacity:1;fill-rule:nonzero;stroke:none"
         d="m 4055.85,1036.45 v -11.42 h -16.04 l -6.5,11.42 h 22.54" /></g></g></svg>