<svg width="638.77332" height="638.77332" xmlns="http://www.w3.org/2000/svg">
 <metadata id="metadata8">image/svg+xml</metadata>

 <g>
  <title>background</title>
  <rect fill="none" id="canvas_background" height="640.77332" width="640.77332" y="-1" x="-1"/>
 </g>
 <g>
  <title>Layer 1</title>
  <g id="g10" transform="matrix(1.3333333,0,0,-1.3333333,0,638.77333) ">
   <g id="g12" transform="translate(-327.75,0) scale(0.10000000149011612) ">
    <path fill="#ffffff" fill-rule="nonzero" d="m8084.47,2395.38c0,-1322.92 -1072.46,-2395.38 -2395.4,-2395.38c-1322.95,0 -2395.4,1072.46 -2395.4,2395.38c0,1322.96 1072.45,2395.41 2395.4,2395.41c1322.94,0 2395.4,-1072.45 2395.4,-2395.41" id="path14"/>
    <path fill="#100f0d" fill-rule="nonzero" d="m7935.6,2159.54c0,-1174.528 -952.15,-2126.6806 -2126.68,-2126.6806c-1174.53,0 -2126.67,952.1526 -2126.67,2126.6806c0,1174.53 952.14,2126.67 2126.67,2126.67c1174.53,0 2126.68,-952.14 2126.68,-2126.67" id="path16"/>
    <path fill="#ffffff" fill-rule="nonzero" d="m5217.77,4072.76l0,-3480.01c0,0 79.88,-86.441 141.45,74.219c116.49,303.961 170.54,549.691 123.29,911.991c-61.95,475.04 75.55,475.04 281.81,229.49c158.85,-189.12 301.91,-395.98 678.29,-468.56c340.5,-65.65 525.68,65.76 547.06,392.95c18.4,281.51 -281.34,507.53 -48.97,941.91c260.55,487.07 -44.09,737.95 -298.42,699.66c-303.1,-45.64 -616.65,-352.61 -884.42,-638c-117.19,-124.9 -158.37,6.34 86.88,212.76c357.09,300.55 483.47,412.16 533.06,628.59c64.83,282.94 3.05,569.44 -349.86,569.97c-278.22,0.42 -338.88,-248.45 -810.17,-74.97" id="path18"/>
    <path fill="none" stroke="#ffffff" stroke-width="10" stroke-miterlimit="10" d="m5217.77,4072.76l0,-3480.01c0,0 79.88,-86.441 141.45,74.219c116.49,303.961 170.54,549.691 123.29,911.991c-61.95,475.04 75.55,475.04 281.81,229.49c158.85,-189.12 301.91,-395.98 678.29,-468.56c340.5,-65.65 525.68,65.76 547.06,392.95c18.4,281.51 -281.34,507.53 -48.97,941.91c260.55,487.07 -44.09,737.95 -298.42,699.66c-303.1,-45.64 -616.65,-352.61 -884.42,-638c-117.19,-124.9 -158.37,6.34 86.88,212.76c357.09,300.55 483.47,412.16 533.06,628.59c64.83,282.94 3.05,569.44 -349.86,569.97c-278.22,0.42 -338.88,-248.45 -810.17,-74.97z" id="path20"/>
    <path fill="#100f0d" fill-rule="nonzero" d="m6693.76,2520.71c0,0 -69.01,-141.66 0,-250.63c0,0 -629.65,88.55 -973.06,34.15c0,0 221.79,91.16 973.06,216.48" id="path22"/>
    <path fill="none" stroke="#100f0d" stroke-width="10" stroke-miterlimit="10" d="m6693.76,2520.71c0,0 -69.01,-141.66 0,-250.63c0,0 -629.65,88.55 -973.06,34.15c0,0 221.79,91.16 973.06,216.48z" id="path24"/>
    <path fill="#100f0d" fill-rule="nonzero" d="m5395.37,3926.39c0,0 103.92,-58.75 293.7,0c0,0 -94.9,-614.53 -293.7,-998.6c0,0 58.74,497.03 0,998.6" id="path26"/>
    <path fill="none" stroke="#100f0d" stroke-width="10" stroke-miterlimit="10" d="m5395.37,3926.39c0,0 103.92,-58.75 293.7,0c0,0 -94.9,-614.53 -293.7,-998.6c0,0 58.74,497.03 0,998.6z" id="path28"/>
    <path fill="#ffffff" fill-rule="nonzero" d="m5214.61,1911.14c0,0 66.34,100.12 97.67,40.98c29.02,-54.79 -10.44,-120.07 7.05,-304.92c28.52,-301.35 71.26,-540.75 -101.56,-829.54" id="path30"/>
    <path fill="none" stroke="#231f20" stroke-width="10" stroke-miterlimit="10" d="m5214.61,1911.14c0,0 66.34,100.12 97.67,40.98c29.02,-54.79 -10.44,-120.07 7.05,-304.92c28.52,-301.35 71.26,-540.75 -101.56,-829.54" id="path32"/>
    <path fill="#100f0d" fill-rule="nonzero" d="m5217.77,592.75c0,0 4.6,4028.31 -5.68,4069.13c0,0 544,-1122.69 536.95,-1405.82c-7.63,-306.44 -292.4,-435.75 -318.66,-726.66c-17.03,-188.61 37.89,55.97 92.64,152.21c114.39,201.05 186.58,310.43 368.42,432.59c323.15,217.11 585.06,91.48 703.72,-80.42c123.57,-179.02 76.1,-346.3 19.41,-526.5c-22.3,-70.86 -46.03,-143.71 -61.34,-220.06c-15.47,-77.13 -22.37,-157.82 -10.54,-243.61c9.38,-68.01 51.79,-78.51 44.98,-101.05c-9.64,-31.92 -84.01,6.34 -113.42,32.94c-147.18,133.13 -132.15,231.82 -149.34,332.89c-7.41,43.49 -20.77,87.43 -55.62,134.74c-21.65,29.38 -51.58,60.07 -93.51,92.77c-117.25,91.41 -308.31,76.74 -395.75,0.96c-95.02,-82.34 -107.39,-100.44 -164.23,-298.81c-20.31,-70.86 -152.8,-76.38 -168.08,-125.38c-14.85,-47.63 -20.14,-60.68 -17.22,-121.95c2.87,-60.26 86.52,-82.47 186.52,-73.17c159.61,14.83 329.55,-25.78 417.49,-176.49c80.37,-137.74 -10.43,-209.71 38.1,-313.49c4.32,-9.23 9.3,-17.56 7.8,-26.54c-1.12,-6.64 -12.43,-14.98 -25.07,-4.03c-135.62,117.37 -292.01,105.9 -449.83,95.85c-87.76,-5.59 -193.97,24.86 -254.62,129.64c-40.07,69.25 -39.5,37.42 -20.84,-17.26c16.37,-47.96 61.25,-75.59 230.82,-188.56c218.71,-145.7 -110.18,-557.182 -343.1,-823.92" id="path34"/>
    <path fill="none" stroke="#ffffff" stroke-width="10" stroke-miterlimit="10" d="m5217.77,592.75c0,0 4.6,4028.31 -5.68,4069.13c0,0 544,-1122.69 536.95,-1405.82c-7.63,-306.44 -292.4,-435.75 -318.66,-726.66c-17.03,-188.61 37.89,55.97 92.64,152.21c114.39,201.05 186.58,310.43 368.42,432.59c323.15,217.11 585.06,91.48 703.72,-80.42c123.57,-179.02 76.1,-346.3 19.41,-526.5c-22.3,-70.86 -46.03,-143.71 -61.34,-220.06c-15.47,-77.13 -22.37,-157.82 -10.54,-243.61c9.38,-68.01 51.79,-78.51 44.98,-101.05c-9.64,-31.92 -84.01,6.34 -113.42,32.94c-147.18,133.13 -132.15,231.82 -149.34,332.89c-7.41,43.49 -20.77,87.43 -55.62,134.74c-21.65,29.38 -51.58,60.07 -93.51,92.77c-117.25,91.41 -308.31,76.74 -395.75,0.96c-95.02,-82.34 -107.39,-100.44 -164.23,-298.81c-20.31,-70.86 -152.8,-76.38 -168.08,-125.38c-14.85,-47.63 -20.14,-60.68 -17.22,-121.95c2.87,-60.26 86.52,-82.47 186.52,-73.17c159.61,14.83 329.55,-25.78 417.49,-176.49c80.37,-137.74 -10.43,-209.71 38.1,-313.49c4.32,-9.23 9.3,-17.56 7.8,-26.54c-1.12,-6.64 -12.43,-14.98 -25.07,-4.03c-135.62,117.37 -292.01,105.9 -449.83,95.85c-87.76,-5.59 -193.97,24.86 -254.62,129.64c-40.07,69.25 -39.5,37.42 -20.84,-17.26c16.37,-47.96 61.25,-75.59 230.82,-188.56c218.71,-145.7 -110.18,-557.182 -343.1,-823.92z" id="path36"/>
    <path fill="#137f32" fill-rule="nonzero" d="m5176.04,4661.88l0,-3118.11l-383.47,0l0,170.08c-359.55,5.55 -422.75,358.87 -321.06,685.47c704.53,2262.56 704.53,2262.56 704.53,2262.56" id="path38"/>
    <path fill="none" stroke="#ffffff" stroke-width="10" stroke-miterlimit="10" d="m5176.04,4661.88l0,-3118.11l-383.47,0l0,170.08c-359.55,5.55 -422.75,358.87 -321.06,685.47c704.53,2262.56 704.53,2262.56 704.53,2262.56z" id="path40"/>
    <path fill="#42a430" fill-rule="nonzero" d="m5176.04,4094.95l0,-2551.18l-241.74,0l0,311.81c-323.3,0.24 -342.11,255.81 -243.06,592.29c521.73,1772.59 484.8,1647.08 484.8,1647.08" id="path42"/>
    <path fill="none" stroke="#ffffff" stroke-width="10" stroke-miterlimit="10" d="m5176.04,4094.95l0,-2551.18l-241.74,0l0,311.81c-323.3,0.24 -342.11,255.81 -243.06,592.29c521.73,1772.59 484.8,1647.08 484.8,1647.08z" id="path44"/>
    <path fill="#80cc28" fill-rule="nonzero" d="m5176.04,3528.02l0,-1984.25l-100,0l0,453.54c-214.52,2.8 -250.7,158.3 -190.88,392.39c290.88,1138.32 290.88,1138.32 290.88,1138.32" id="path46"/>
    <path fill="none" stroke="#ffffff" stroke-width="10" stroke-miterlimit="10" d="m5176.04,3528.02l0,-1984.25l-100,0l0,453.54c-214.52,2.8 -250.7,158.3 -190.88,392.39c290.88,1138.32 290.88,1138.32 290.88,1138.32z" id="path48"/>
    <path fill="#ffffff" fill-rule="nonzero" d="m5176.04,1554.6l-1049.76,0l0,-30.66l1049.76,0l0,30.66" id="path50"/>
    <path fill="none" stroke="#ffffff" stroke-width="10" stroke-miterlimit="10" d="m5176.04,1554.6l-1049.76,0l0,-30.66l1049.76,0l0,30.66z" id="path52"/>
    <g id="g54" transform="translate(-7.5,0) scale(10) ">
     <text x="-2.25" y="0" font-weight="normal" font-size="24px" font-family="EngraversMT" fill="#ffffff" fill-rule="nonzero" transform="matrix(1,0,0,-1,415.628,127.725) " id="text60">
      <tspan x="0 20.261713 37.066391 58.066391 81.831963" y="0" id="tspan56">PFADI</tspan>
      <tspan x="0 22.992001 42.743999 63.743999 83.496002" y="28.799999" id="tspan58">OLTEN</tspan>
     </text>
    </g>
   </g>
  </g>
 </g>
</svg>