<?xml version="1.0" encoding="UTF-8" standalone="no"?>
<svg
   xmlns:dc="http://purl.org/dc/elements/1.1/"
   xmlns:cc="http://creativecommons.org/ns#"
   xmlns:rdf="http://www.w3.org/1999/02/22-rdf-syntax-ns#"
   xmlns:svg="http://www.w3.org/2000/svg"
   xmlns="http://www.w3.org/2000/svg"
   viewBox="0 0 1133.8533 660.69336"
   height="660.69336"
   width="1133.8533"
   xml:space="preserve"
   id="svg2"
   version="1.1"><metadata
     id="metadata8"><rdf:RDF><cc:Work
         rdf:about=""><dc:format>image/svg+xml</dc:format><dc:type
           rdf:resource="http://purl.org/dc/dcmitype/StillImage" /></cc:Work></rdf:RDF></metadata><defs
     id="defs6" /><g
     transform="matrix(1.3333333,0,0,-1.3333333,0,660.69333)"
     id="g10"><g
       transform="scale(0.1)"
       id="g12"><path
         id="path14"
         style="fill:#ffffff;fill-opacity:1;fill-rule:nonzero;stroke:none"
         d="M 8427.01,2461.94 C 8427.01,1139.01 7354.55,66.5508 6031.61,66.5508 4708.66,66.5508 3636.22,1139.01 3636.22,2461.94 c 0,1322.95 1072.44,2395.4 2395.39,2395.4 1322.94,0 2395.4,-1072.45 2395.4,-2395.4" /><path
         id="path16"
         style="fill:#100f0d;fill-opacity:1;fill-rule:nonzero;stroke:none"
         d="M 8278.14,2226.09 C 8278.14,1051.56 7326,99.4102 6151.46,99.4102 c -1174.53,0 -2126.67,952.1498 -2126.67,2126.6798 0,1174.53 952.14,2126.68 2126.67,2126.68 1174.54,0 2126.68,-952.15 2126.68,-2126.68" /><path
         id="path18"
         style="fill:#ffffff;fill-opacity:1;fill-rule:nonzero;stroke:none"
         d="M 5560.31,4139.31 V 659.309 c 0,0 79.89,-86.45 141.46,74.222 116.48,303.949 170.53,549.679 123.29,911.989 -61.95,475.04 75.55,475.04 281.81,229.48 158.84,-189.11 301.9,-395.98 678.29,-468.55 340.49,-65.66 525.67,65.76 547.06,392.94 18.4,281.52 -281.34,507.53 -48.98,941.92 260.55,487.06 -44.09,737.94 -298.42,699.65 -303.09,-45.63 -616.65,-352.61 -884.42,-638 -117.19,-124.89 -158.37,6.34 86.89,212.76 357.09,300.55 483.46,412.17 533.05,628.59 64.84,282.95 3.06,569.44 -349.85,569.97 -278.22,0.42 -338.89,-248.44 -810.18,-74.97" /><path
         id="path20"
         style="fill:none;stroke:#ffffff;stroke-width:10;stroke-linecap:butt;stroke-linejoin:miter;stroke-miterlimit:10;stroke-dasharray:none;stroke-opacity:1"
         d="M 5560.31,4139.31 V 659.309 c 0,0 79.89,-86.45 141.46,74.222 116.48,303.949 170.53,549.679 123.29,911.989 -61.95,475.04 75.55,475.04 281.81,229.48 158.84,-189.11 301.9,-395.98 678.29,-468.55 340.49,-65.66 525.67,65.76 547.06,392.94 18.4,281.52 -281.34,507.53 -48.98,941.92 260.55,487.06 -44.09,737.94 -298.42,699.65 -303.09,-45.63 -616.65,-352.61 -884.42,-638 -117.19,-124.89 -158.37,6.34 86.89,212.76 357.09,300.55 483.46,412.17 533.05,628.59 64.84,282.95 3.06,569.44 -349.85,569.97 -278.22,0.42 -338.89,-248.44 -810.18,-74.97 z" /><path
         id="path22"
         style="fill:#100f0d;fill-opacity:1;fill-rule:nonzero;stroke:none"
         d="m 7036.31,2587.26 c 0,0 -69.02,-141.65 0,-250.62 0,0 -629.66,88.55 -973.07,34.14 0,0 221.79,91.17 973.07,216.48" /><path
         id="path24"
         style="fill:none;stroke:#100f0d;stroke-width:10;stroke-linecap:butt;stroke-linejoin:miter;stroke-miterlimit:10;stroke-dasharray:none;stroke-opacity:1"
         d="m 7036.31,2587.26 c 0,0 -69.02,-141.65 0,-250.62 0,0 -629.66,88.55 -973.07,34.14 0,0 221.79,91.17 973.07,216.48 z" /><path
         id="path26"
         style="fill:#100f0d;fill-opacity:1;fill-rule:nonzero;stroke:none"
         d="m 5737.91,3992.94 c 0,0 103.93,-58.74 293.7,0 0,0 -94.89,-614.52 -293.7,-998.6 0,0 58.74,497.04 0,998.6" /><path
         id="path28"
         style="fill:none;stroke:#100f0d;stroke-width:10;stroke-linecap:butt;stroke-linejoin:miter;stroke-miterlimit:10;stroke-dasharray:none;stroke-opacity:1"
         d="m 5737.91,3992.94 c 0,0 103.93,-58.74 293.7,0 0,0 -94.89,-614.52 -293.7,-998.6 0,0 58.74,497.04 0,998.6 z" /><path
         id="path30"
         style="fill:#ffffff;fill-opacity:1;fill-rule:nonzero;stroke:none"
         d="m 5557.16,1977.7 c 0,0 66.34,100.11 97.66,40.97 29.03,-54.78 -10.44,-120.07 7.06,-304.92 28.51,-301.35 71.25,-540.74 -101.57,-829.539" /><path
         id="path32"
         style="fill:none;stroke:#231f20;stroke-width:10;stroke-linecap:butt;stroke-linejoin:miter;stroke-miterlimit:10;stroke-dasharray:none;stroke-opacity:1"
         d="m 5557.16,1977.7 c 0,0 66.34,100.11 97.66,40.97 29.03,-54.78 -10.44,-120.07 7.06,-304.92 28.51,-301.35 71.25,-540.74 -101.57,-829.539" /><path
         id="path34"
         style="fill:#100f0d;fill-opacity:1;fill-rule:nonzero;stroke:none"
         d="m 5560.31,659.309 c 0,0 4.6,4028.311 -5.67,4069.121 0,0 543.99,-1122.68 536.94,-1405.82 -7.62,-306.44 -292.4,-435.74 -318.66,-726.66 -17.02,-188.6 37.89,55.97 92.65,152.21 114.38,201.05 186.58,310.43 368.41,432.6 323.16,217.11 585.06,91.48 703.73,-80.43 123.56,-179.01 76.1,-346.3 19.4,-526.49 -22.3,-70.86 -46.03,-143.72 -61.34,-220.07 -15.47,-77.13 -22.36,-157.81 -10.54,-243.61 9.38,-68 51.79,-78.51 44.98,-101.05 -9.63,-31.91 -84.01,6.34 -113.41,32.94 -147.19,133.14 -132.15,231.83 -149.35,332.89 -7.4,43.5 -20.77,87.43 -55.61,134.74 -21.65,29.39 -51.59,60.08 -93.52,92.77 -117.25,91.42 -308.31,76.74 -395.74,0.97 -95.02,-82.35 -107.39,-100.45 -164.24,-298.82 -20.3,-70.86 -152.79,-76.38 -168.08,-125.38 -14.85,-47.62 -20.13,-60.68 -17.21,-121.94 2.87,-60.27 86.51,-82.48 186.51,-73.18 159.61,14.84 329.55,-25.78 417.49,-176.48 80.37,-137.75 -10.43,-209.72 38.11,-313.5 4.31,-9.23 9.29,-17.56 7.79,-26.53 -1.11,-6.64 -12.42,-14.98 -25.07,-4.04 -135.61,117.38 -292,105.9 -449.82,95.85 -87.77,-5.58 -193.98,24.87 -254.62,129.64 -40.08,69.25 -39.5,37.42 -20.84,-17.25 16.36,-47.96 61.25,-75.6 230.82,-188.57 218.7,-145.7 -110.19,-557.181 -343.11,-823.911" /><path
         id="path36"
         style="fill:none;stroke:#ffffff;stroke-width:10;stroke-linecap:butt;stroke-linejoin:miter;stroke-miterlimit:10;stroke-dasharray:none;stroke-opacity:1"
         d="m 5560.31,659.309 c 0,0 4.6,4028.311 -5.67,4069.121 0,0 543.99,-1122.68 536.94,-1405.82 -7.62,-306.44 -292.4,-435.74 -318.66,-726.66 -17.02,-188.6 37.89,55.97 92.65,152.21 114.38,201.05 186.58,310.43 368.41,432.6 323.16,217.11 585.06,91.48 703.73,-80.43 123.56,-179.01 76.1,-346.3 19.4,-526.49 -22.3,-70.86 -46.03,-143.72 -61.34,-220.07 -15.47,-77.13 -22.36,-157.81 -10.54,-243.61 9.38,-68 51.79,-78.51 44.98,-101.05 -9.63,-31.91 -84.01,6.34 -113.41,32.94 -147.19,133.14 -132.15,231.83 -149.35,332.89 -7.4,43.5 -20.77,87.43 -55.61,134.74 -21.65,29.39 -51.59,60.08 -93.52,92.77 -117.25,91.42 -308.31,76.74 -395.74,0.97 -95.02,-82.35 -107.39,-100.45 -164.24,-298.82 -20.3,-70.86 -152.79,-76.38 -168.08,-125.38 -14.85,-47.62 -20.13,-60.68 -17.21,-121.94 2.87,-60.27 86.51,-82.48 186.51,-73.18 159.61,14.84 329.55,-25.78 417.49,-176.48 80.37,-137.75 -10.43,-209.72 38.11,-313.5 4.31,-9.23 9.29,-17.56 7.79,-26.53 -1.11,-6.64 -12.42,-14.98 -25.07,-4.04 -135.61,117.38 -292,105.9 -449.82,95.85 -87.77,-5.58 -193.98,24.87 -254.62,129.64 -40.08,69.25 -39.5,37.42 -20.84,-17.25 16.36,-47.96 61.25,-75.6 230.82,-188.57 218.7,-145.7 -110.19,-557.181 -343.11,-823.911 z" /><path
         id="path38"
         style="fill:#137f32;fill-opacity:1;fill-rule:nonzero;stroke:none"
         d="M 5518.58,4728.43 V 1610.32 h -383.46 v 170.08 c -359.55,5.56 -422.76,358.88 -321.07,685.47 704.53,2262.56 704.53,2262.56 704.53,2262.56" /><path
         id="path40"
         style="fill:none;stroke:#ffffff;stroke-width:10;stroke-linecap:butt;stroke-linejoin:miter;stroke-miterlimit:10;stroke-dasharray:none;stroke-opacity:1"
         d="M 5518.58,4728.43 V 1610.32 h -383.46 v 170.08 c -359.55,5.56 -422.76,358.88 -321.07,685.47 704.53,2262.56 704.53,2262.56 704.53,2262.56 z" /><path
         id="path42"
         style="fill:#42a430;fill-opacity:1;fill-rule:nonzero;stroke:none"
         d="M 5518.58,4161.5 V 1610.32 h -241.73 v 311.81 c -323.31,0.24 -342.11,255.81 -243.07,592.29 521.74,1772.59 484.8,1647.08 484.8,1647.08" /><path
         id="path44"
         style="fill:none;stroke:#ffffff;stroke-width:10;stroke-linecap:butt;stroke-linejoin:miter;stroke-miterlimit:10;stroke-dasharray:none;stroke-opacity:1"
         d="M 5518.58,4161.5 V 1610.32 h -241.73 v 311.81 c -323.31,0.24 -342.11,255.81 -243.07,592.29 521.74,1772.59 484.8,1647.08 484.8,1647.08 z" /><path
         id="path46"
         style="fill:#80cc28;fill-opacity:1;fill-rule:nonzero;stroke:none"
         d="M 5518.58,3594.57 V 1610.32 h -100 v 453.55 c -214.52,2.79 -250.7,158.3 -190.87,392.38 290.87,1138.32 290.87,1138.32 290.87,1138.32" /><path
         id="path48"
         style="fill:none;stroke:#ffffff;stroke-width:10;stroke-linecap:butt;stroke-linejoin:miter;stroke-miterlimit:10;stroke-dasharray:none;stroke-opacity:1"
         d="M 5518.58,3594.57 V 1610.32 h -100 v 453.55 c -214.52,2.79 -250.7,158.3 -190.87,392.38 290.87,1138.32 290.87,1138.32 290.87,1138.32 z" /><path
         id="path50"
         style="fill:#ffffff;fill-opacity:1;fill-rule:nonzero;stroke:none"
         d="M 5518.58,1621.15 H 4468.82 v -30.65 h 1049.76 v 30.65" /><path
         id="path52"
         style="fill:none;stroke:#ffffff;stroke-width:10;stroke-linecap:butt;stroke-linejoin:miter;stroke-miterlimit:10;stroke-dasharray:none;stroke-opacity:1"
         d="M 5518.58,1621.15 H 4468.82 v -30.65 h 1049.76 z" /><path
         id="path54"
         style="fill:#231f20;fill-opacity:1;fill-rule:nonzero;stroke:none"
         d="m 487.738,1490.02 v -203.91 h 81.739 c 40.429,0 70.312,8.35 89.648,25.05 19.336,16.7 29.004,42.53 29.004,77.49 0,40.82 -13.379,69.24 -40.137,85.26 -9.57,5.66 -20.801,9.76 -33.691,12.3 -12.891,2.54 -28.906,3.81 -48.047,3.81 z m -174.609,10.84 h 244.336 c 14.453,0 30.273,-0.49 47.461,-1.47 17.183,-0.97 32.617,-2.19 46.289,-3.66 13.668,-1.46 25,-3.17 33.984,-5.12 32.227,-6.84 56.879,-19.1 73.977,-36.77 17.09,-17.68 25.633,-39.6 25.633,-65.77 0,-17.97 -4.102,-33.99 -12.305,-48.05 -8.203,-14.06 -20.262,-25.93 -36.18,-35.6 -15.926,-9.66 -35.406,-17.04 -58.449,-22.12 -23.047,-5.07 -49.027,-7.61 -77.93,-7.61 H 487.738 v -97.27 c 0,-50 24.801,-75 74.414,-75 h 20.508 v -10.84 H 312.543 v 10.84 h 14.355 c 49.61,0 74.415,25 74.415,75 v 238.19 c 0,49.6 -24.805,74.41 -74.415,74.41 h -13.769 v 10.84" /><path
         id="path56"
         style="fill:#231f20;fill-opacity:1;fill-rule:nonzero;stroke:none"
         d="m 999.262,1490.02 v -177.54 h 25.778 c 27.15,0 48.34,8.89 63.58,26.66 15.23,17.77 26.17,46.48 32.81,86.13 h 10.25 v -234.66 h -10.84 c -3.12,20.31 -6.93,36.42 -11.42,48.34 -4.5,11.91 -10.65,22.55 -18.46,31.93 -16.6,20.51 -40.43,30.76 -71.48,30.76 h -20.218 v -124.22 c 0,-25.19 6.108,-43.89 18.308,-56.1 12.21,-12.21 30.81,-18.31 55.81,-18.31 h 26.08 v -11.43 H 828.168 v 11.43 h 10.254 c 25.195,0 43.898,6.1 56.105,18.31 12.203,12.21 18.309,30.91 18.309,56.1 v 238.19 c 0,25.39 -6.055,44.14 -18.164,56.25 -12.113,12.1 -30.863,18.16 -56.25,18.16 h -10.254 v 10.84 h 447.662 v -176.95 h -9.67 c -2.93,15.23 -6.16,29.2 -9.67,41.89 -3.52,12.7 -6.93,22.46 -10.25,29.3 -9.78,21.68 -21.64,39.5 -35.6,53.46 -13.97,13.97 -30.47,24.37 -49.51,31.21 -19.05,6.83 -40.68,10.25 -64.89,10.25 h -96.978" /><path
         id="path58"
         style="fill:#231f20;fill-opacity:1;fill-rule:nonzero;stroke:none"
         d="m 1450.43,1413.26 -80.27,-182.52 h 162.6 z m 31.06,95.8 h 10.84 l 164.65,-358.01 c 5.27,-11.13 11.17,-20.31 17.72,-27.53 6.55,-7.23 13.92,-12.46 22.12,-15.68 8.2,-3.22 17.87,-4.83 29.01,-4.83 h 10.84 v -11.43 h -237.6 v 11.43 h 31.05 c 15.43,0 26.71,2.1 33.84,6.3 7.13,4.2 10.69,10.69 10.69,19.48 0,5.47 -1.42,12.11 -4.24,19.92 -2.84,7.81 -9.04,21.97 -18.61,42.48 -0.58,1.17 -1.46,3.13 -2.63,5.86 -1.18,2.73 -2.45,5.37 -3.81,7.91 l -6.74,14.94 H 1365.18 L 1352,1189.43 c -4.3,-10.35 -6.45,-20.8 -6.45,-31.34 0,-8.99 2.49,-17.88 7.47,-26.66 4.98,-8.79 11.47,-15.43 19.48,-19.93 5.28,-3.12 10.01,-5.22 14.21,-6.3 4.2,-1.07 10.21,-1.8 18.02,-2.19 v -11.43 h -166.7 v 11.43 c 12.11,1.36 21.73,3.51 28.86,6.44 7.13,2.93 15.09,7.82 23.88,14.65 20.69,16.02 40.91,46.19 60.64,90.53 l 130.08,294.43" /><path
         id="path60"
         style="fill:#231f20;fill-opacity:1;fill-rule:nonzero;stroke:none"
         d="m 1946.14,1490.02 v -387.01 h 79.09 c 22.47,0 41.51,1.27 57.13,3.81 15.63,2.54 29.3,6.69 41.02,12.45 11.72,5.76 21.97,13.33 30.76,22.7 32.42,33.01 48.63,83.79 48.63,152.35 0,22.46 -1.99,43.7 -5.99,63.72 -4.01,20.02 -9.83,37.64 -17.44,52.88 -7.62,15.23 -17.19,28.61 -28.71,40.13 -9.58,9.38 -20.36,16.95 -32.37,22.71 -12.01,5.76 -25.88,9.91 -41.6,12.45 -15.72,2.54 -34.63,3.81 -56.7,3.81 z m -175.78,10.84 h 271.57 c 44.14,0 82.68,-5.52 115.59,-16.55 32.91,-11.04 60.59,-27.98 83.05,-50.83 20.31,-19.73 35.99,-42 47.03,-66.8 11.03,-24.81 16.54,-50.29 16.54,-76.47 0,-28.71 -5.96,-55.27 -17.87,-79.68 -11.91,-24.42 -28.75,-45.51 -50.53,-63.28 -21.78,-17.78 -47.61,-31.5 -77.5,-41.17 -29.88,-9.66 -62.2,-14.5 -96.97,-14.5 h -290.91 v 11.43 h 14.94 c 25.19,0 43.89,6.1 56.1,18.31 12.2,12.21 18.31,30.91 18.31,56.1 v 238.19 c 0,25.39 -6.05,44.14 -18.16,56.25 -12.12,12.1 -30.87,18.16 -56.25,18.16 h -14.94 v 10.84" /><path
         id="path62"
         style="fill:#231f20;fill-opacity:1;fill-rule:nonzero;stroke:none"
         d="m 2378.85,1103.01 h 11.42 c 25.2,0 43.9,6.1 56.11,18.31 12.2,12.21 18.31,30.91 18.31,56.1 1.56,10.55 2.78,19.87 3.66,27.98 0.88,8.11 1.42,17.38 1.61,27.83 0.2,10.45 0.2,23.59 0,39.41 -0.78,66.79 -2.73,117.09 -5.86,150.88 -1.17,13.67 -3.37,24.31 -6.59,31.93 -3.22,7.62 -8.06,13.96 -14.5,19.04 -11.72,10.35 -29.3,15.53 -52.74,15.53 h -11.42 v 10.84 h 257.81 v -10.84 h -11.43 c -25.19,0 -43.84,-6.06 -55.95,-18.16 -12.11,-12.11 -18.17,-30.86 -18.17,-56.25 v -238.19 c 0,-25.19 6.11,-43.89 18.31,-56.1 12.21,-12.21 30.81,-18.31 55.81,-18.31 h 11.43 v -11.43 h -257.81 v 11.43" /><path
         id="path64"
         style="fill:#231f20;fill-opacity:1;fill-rule:nonzero;stroke:none"
         d="m 3150.23,1498.52 c -17.77,0 -34.52,-3.08 -50.24,-9.23 -15.72,-6.16 -28.95,-14.9 -39.7,-26.22 -11.72,-12.31 -21.73,-26.91 -30.03,-43.8 -8.3,-16.9 -14.55,-35.74 -18.75,-56.55 -4.2,-20.8 -6.3,-43.21 -6.3,-67.23 0,-30.08 3.33,-57.47 9.97,-82.18 6.64,-24.71 16.21,-46 28.71,-63.87 12.5,-17.87 27.44,-31.49 44.82,-40.87 17.38,-9.37 36.72,-14.06 58.01,-14.06 28.91,0 54.05,8.25 75.44,24.76 21.38,16.5 37.79,40.09 49.22,70.75 11.42,30.66 17.14,67.09 17.14,109.28 0,27.34 -3.13,52.93 -9.38,76.75 -6.25,23.83 -15.23,44.58 -26.95,62.26 -11.72,17.68 -25.88,31.69 -42.48,42.04 -8.21,5.47 -17.68,9.86 -28.42,13.18 -10.74,3.33 -21.09,4.99 -31.06,4.99 z m -7.61,10.54 c 38.28,0 73.29,-6.1 105.03,-18.31 31.73,-12.21 59.32,-30.03 82.76,-53.47 19.73,-19.92 34.96,-42.13 45.7,-66.65 10.75,-24.51 16.12,-49.56 16.12,-75.14 0,-38.48 -10.89,-73.93 -32.67,-106.35 -21.78,-32.42 -51.37,-58.11 -88.77,-77.05 -37.4,-18.95 -78.37,-28.42 -122.9,-28.42 -33.98,0 -65.97,5.37 -95.95,16.11 -29.98,10.75 -56.39,25.93 -79.24,45.56 -22.86,19.63 -40.68,42.53 -53.47,68.7 -12.79,26.17 -19.19,53.52 -19.19,82.03 0,37.89 11.03,73.25 33.1,106.06 22.07,32.81 51.66,58.84 88.77,78.07 37.11,19.24 77.35,28.86 120.71,28.86" /><path
         id="path66"
         style="fill:#231f20;fill-opacity:1;fill-rule:nonzero;stroke:none"
         d="m 3450.23,1500.86 h 279.2 v -10.84 h -29.59 c -25.19,0 -43.84,-6.06 -55.95,-18.16 -12.11,-12.11 -18.17,-30.86 -18.17,-56.25 v -313.19 h 106.06 c 20.9,0 40.62,4.64 59.18,13.92 18.55,9.28 34.67,22.21 48.34,38.82 8.2,10.35 15.43,20.6 21.68,30.76 6.25,10.15 12.2,22.46 17.87,36.91 5.66,14.45 11.23,31.06 16.7,49.81 h 10.84 v -181.06 h -456.16 l -0.58,10.84 h 15.23 c 49.61,0 74.42,25 74.42,75 v 238.19 c 0,49.6 -24.81,74.41 -74.42,74.41 h -14.65 v 10.84" /><path
         id="path68"
         style="fill:#100f0d;fill-opacity:1;fill-rule:nonzero;stroke:none"
         d="m 3949.16,1500.86 h 479.88 v -207.72 l -9.37,-0.58 c -4.88,51.95 -20.51,96.58 -46.88,133.89 -31.25,42.38 -70.9,63.57 -118.94,63.57 h -21.39 v -312.6 c 0,-49.61 24.71,-74.41 74.12,-74.41 h 61.82 v -11.43 h -357.42 v 11.43 h 61.23 c 49.61,0 74.41,24.8 74.41,74.41 v 312.6 h -26.37 c -48.82,0 -88.47,-22.85 -118.94,-68.56 -15.04,-22.46 -26.47,-49.21 -34.28,-80.27 -2.54,-10.55 -5.08,-26.56 -7.62,-48.05 h -10.25 v 207.72" /><path
         id="path70"
         style="fill:#ffffff;fill-opacity:1;fill-rule:nonzero;stroke:none"
         d="M 4470.64,1500.86 H 4906 v -158.5 h -8.79 c -8.01,27.74 -15.19,48.49 -21.54,62.26 -6.34,13.77 -14.6,26.81 -24.75,39.11 -12.31,14.65 -25.69,25.1 -40.14,31.35 -24.02,9.96 -53.22,14.94 -87.6,14.94 h -80.56 v -194.53 h 21.68 c 32.22,0 57.81,13.87 76.75,41.6 9.77,14.26 17,31.25 21.68,50.98 2.35,8.39 4.5,20.8 6.45,37.2 h 10.25 v -268.36 h -10.25 c -2.34,14.46 -5.13,28.08 -8.35,40.87 -3.22,12.8 -6.84,23.2 -10.84,31.2 -4,8.01 -9.13,16.02 -15.38,24.03 -17.58,21.68 -42.58,32.52 -75,32.52 h -16.99 V 1102.42 H 4710 c 19.92,0 37.84,1.42 53.76,4.25 15.92,2.83 30.22,7.23 42.92,13.18 12.7,5.96 24.61,13.72 35.74,23.29 19.14,16.22 33.99,36.43 44.53,60.65 6.06,13.87 12.41,32.62 19.05,56.25 h 10.84 v -168.46 h -445.61 l -0.59,10.84 h 11.14 c 49.61,0 74.41,25 74.41,75 v 238.19 c 0,25.39 -6.05,44.14 -18.16,56.25 -12.11,12.1 -30.86,18.16 -56.25,18.16 h -11.14 v 10.84" /><path
         id="path72"
         style="fill:#ffffff;fill-opacity:1;fill-rule:nonzero;stroke:none"
         d="m 4969.28,1500.86 h 164.35 l 284.48,-294.73 v 176.37 c 0,21.48 -3.67,40.28 -10.99,56.4 -7.33,16.11 -17.92,28.37 -31.79,36.76 -7.42,4.69 -14.89,8.01 -22.41,9.96 -7.52,1.96 -18.02,3.42 -31.49,4.4 v 10.84 h 202.73 v -10.84 h -4.1 c -29.49,0 -51.95,-9.38 -67.38,-28.13 -15.43,-18.75 -23.15,-45.99 -23.15,-81.73 v -292.68 h -9.67 l -353.32,362.99 V 1207.3 c 0,-23.63 2.84,-42.52 8.5,-56.68 5.66,-14.17 14.84,-25.25 27.54,-33.26 10.35,-6.25 22.95,-10.25 37.79,-12.01 8.2,-1.37 19.92,-2.34 35.16,-2.93 v -10.84 h -213.58 v 10.84 c 21.88,1.17 39.7,5.03 53.47,11.57 13.77,6.55 23.93,16.26 30.47,29.15 6.54,12.89 9.81,28.91 9.81,48.05 v 231.45 c 0,14.25 -3.17,26.36 -9.52,36.32 -6.35,9.97 -15.57,17.63 -27.68,23 -12.11,5.37 -26.76,8.06 -43.95,8.06 h -5.27 v 10.84" /><path
         id="path74"
         style="fill:#ffffff;fill-opacity:1;fill-rule:nonzero;stroke:none"
         d="m 4151.65,1500.86 c 17.75,-47.94 36.93,-106.07 80.81,-192.51 v 181.67 c 0,0 97.21,4.63 140.33,-63.57 47.55,-75.21 46.88,-133.89 46.88,-133.89 l 9.37,0.58 v 207.72 h -277.39" /><path
         id="path76"
         style="fill:#ffffff;fill-opacity:1;fill-rule:nonzero;stroke:none"
         d="m 4368.4,1103.01 v -11.43 h -16.05 l -6.5,11.43 h 22.55" /></g></g></svg>